inDegrees=no
num_controls=7
num_derivatives=13
num_iterations=122
num_multipliers=7
num_parameters=0
num_slacks=7
num_states=26
objective=5.944642
objective_accelerations=0.757995
objective_balance=0.020885
objective_effort=0.516166
objective_height=4.578697
objective_ligament=0.070899
solver_duration=1094.321899
status=Solve_Succeeded
success=true
DataType=double
version=3
OpenSimVersion=4.4-2022-07-23-0e9fedc
endheader
time	/jointset/ground_pelvis/pelvis_tilt/value	/jointset/ground_pelvis/pelvis_tx/value	/jointset/ground_pelvis/pelvis_ty/value	/jointset/hip_r/hip_flexion_r/value	/jointset/hip_r/hip_adduction_r/value	/jointset/hip_r/hip_rotation_r/value	/jointset/back/lumbar_extension/value	/jointset/patellofemoral_r/patellar_flexion_r/value	/jointset/knee_r/knee_flexion_r/value	/jointset/knee_r/knee_adduction_r/value	/jointset/knee_r/knee_rotation_r/value	/jointset/ankle_r/ankle_angle_r/value	/jointset/subtalar_r/subtalar_angle_r/value	/jointset/ground_pelvis/pelvis_tilt/speed	/jointset/ground_pelvis/pelvis_tx/speed	/jointset/ground_pelvis/pelvis_ty/speed	/jointset/hip_r/hip_flexion_r/speed	/jointset/hip_r/hip_adduction_r/speed	/jointset/hip_r/hip_rotation_r/speed	/jointset/back/lumbar_extension/speed	/jointset/patellofemoral_r/patellar_flexion_r/speed	/jointset/knee_r/knee_flexion_r/speed	/jointset/knee_r/knee_adduction_r/speed	/jointset/knee_r/knee_rotation_r/speed	/jointset/ankle_r/ankle_angle_r/speed	/jointset/subtalar_r/subtalar_angle_r/speed	/forceset/tau_hip_flexion_r	/forceset/tau_hip_adduction_r	/forceset/tau_hip_rotation_r	/forceset/tau_knee_flexion_r	/forceset/tau_ankle_angle_r	/forceset/tau_subtalar_angle_r	/forceset/tau_lumbar_extension	lambda_cid13_p0	lambda_cid14_p0	lambda_cid14_p1	lambda_cid14_p2	lambda_cid14_p3	lambda_cid14_p4	lambda_cid14_p5	/jointset/ground_pelvis/pelvis_tilt/accel	/jointset/ground_pelvis/pelvis_tx/accel	/jointset/ground_pelvis/pelvis_ty/accel	/jointset/hip_r/hip_flexion_r/accel	/jointset/hip_r/hip_adduction_r/accel	/jointset/hip_r/hip_rotation_r/accel	/jointset/back/lumbar_extension/accel	/jointset/patellofemoral_r/patellar_flexion_r/accel	/jointset/knee_r/knee_flexion_r/accel	/jointset/knee_r/knee_adduction_r/accel	/jointset/knee_r/knee_rotation_r/accel	/jointset/ankle_r/ankle_angle_r/accel	/jointset/subtalar_r/subtalar_angle_r/accel	gamma_cid13_p0	gamma_cid14_p0	gamma_cid14_p1	gamma_cid14_p2	gamma_cid14_p3	gamma_cid14_p4	gamma_cid14_p5
1.5	-0.1168962896826728	0.0182582713875802	0.793608360949324	0.9165872172848049	-0.2241972899467192	-0.11827981211427	-0.6384229311855597	1.017549809311654	1.01754980931163	-0.06278745772226076	0.1745292290646938	0.3133331678036088	0.1441391094281322	0.5476266326957353	0.2414718653444555	0.6088165060457205	-2.299531512202235	0.03486305518271714	-0.233930511846318	0.79924430187364	-2.172579149175248	-2.172579149175315	0.4441323425085709	-4.251737719968579e-06	-0.5291032373640108	-0.1599951863994839	-0.1801706323762546	-0.001791135024861923	0.01860277844370906	-0.3143130701227628	0.0211934558894942	0.004666323151062848	0.2263044810150535	-5.546462873810583	-34.50337644429914	-3.380599362432348	0.2365899386632169	-5.301934191669049	-625.6915971945847	68.0295365604599	0.3301025947478375	0.7114968889086395	-0.6069405102511521	-1.160199689227569	-0.1883523804122305	-0.5277306920173286	2.023962781428545	-1.447373938774091	-1.447373938774088	0.5170054413895361	-0.03134787391907943	-0.7928077706383556	-0.4577171528043363	2.326255105460637e-07	1.96571653205354e-07	-1.251305963044047e-06	1.884638339305767e-06	2.362757129721449e-08	3.691882815327764e-07	-6.457246949735391e-07
1.51	-0.1114038270968035	0.02070829218524531	0.7996649665643571	0.8935359941982127	-0.2238592785635509	-0.1206452296584894	-0.6303311346283221	0.995754316752012	0.9957543167519752	-0.05831823391108511	0.1745292811432572	0.3080029764698282	0.1425147678807895	0.550775325668819	0.2485004807376263	0.6023717623170636	-2.310403302639202	0.03272545869351211	-0.2391557563540956	0.8189980701772376	-2.18621806155726	-2.186218061557409	0.4496824717225988	6.807408346341709e-06	-0.5368444527561054	-0.1648374091922307	-0.1721081926210717	-0.002852204357262946	0.01845609395951804	-0.3094399822619429	0.02255483022400591	0.00399165046912159	0.2188855429628523	-6.490826837671907	-33.72453709800066	-3.408168757315776	0.0935544655917286	-5.296404893207844	-619.7579191533923	67.45885447991058	0.2936855305110061	0.6937811593347664	-0.6830915689231474	-1.004175566658528	-0.2283878406362086	-0.5199860875038246	1.93354294514689	-1.276999028553941	-1.276999028566003	0.5693164963400102	0.01643732959232828	-0.7511317580452256	-0.4921488983792388	2.253495080152467e-07	1.807413151947265e-07	-1.374008469707955e-06	1.728364429334008e-06	3.87628518776517e-08	3.826989144811991e-07	-7.77670017454777e-07
1.52	-0.1058825910048242	0.02322764659580452	0.8056531546891537	0.8703853518381036	-0.2235430280567638	-0.1230629125992569	-0.6220453085699851	0.9738314652404056	0.9738314652403858	-0.05379444884077732	0.1745292647174096	0.3025981023152164	0.140843069294346	0.5533813339188132	0.2553385879232743	0.5951330079984032	-2.319415366905263	0.03051087990583541	-0.2443835911557073	0.8380502020937105	-2.198050939564837	-2.198050939565066	0.455044594333849	-1.795261666988201e-05	-0.5440398015302075	-0.1694665942197541	-0.1640457528658781	-0.00391327368965151	0.01830940947533069	-0.3045668944011229	0.02391620455851992	0.003316977787198704	0.2114666049106601	-7.51044169867469	-32.93852042539567	-3.425881934894544	-0.06087563480534802	-5.32521624047533	-613.7338034085849	66.96027137510931	0.221565650129732	0.6733952474042554	-0.7657426282518628	-0.7882544550465969	-0.2037488401066788	-0.528248750784278	1.883635504003549	-1.086167063886891	-1.086167063886892	0.4794041208340828	-0.03851170813531258	-0.6836344470396373	-0.415109599759755	2.211113857725099e-07	1.647221799448081e-07	-1.521762216866855e-06	1.583738502260794e-06	5.840211879288782e-08	3.949745383492181e-07	-9.183228029138874e-07
1.53	-0.1003380053198554	0.0258143317296044	0.8115650629272373	0.8471539180963868	-0.2232492470271942	-0.1255335444439142	-0.6135726353205493	0.9517993143927846	0.9517993143927622	-0.04921854590393569	0.1745291334157721	0.2971240418826975	0.1391262716989314	0.5554445726671235	0.2619561152185394	0.5871234649832484	-2.326552600023033	0.02823521972373745	-0.2497576056242306	0.8563497747544316	-2.208067834097148	-2.208067834097161	0.4600930082000764	-5.276738511814698e-06	-0.5506777096843888	-0.1738522167397893	-0.1560779900114583	-0.004942492821757279	0.0181743374006892	-0.299854184951837	0.02506609459074786	0.002447850262403222	0.2040916886013851	-8.60368472985404	-32.26494555689207	-3.556788307362566	-0.1869177028123868	-5.191201719993405	-608.0781805111458	66.30454825721904	0.1850298326396538	0.6496021089273351	-0.8372539719063351	-0.6286234566301935	-0.2409140919142609	-0.5438624853182529	1.782917191063167	-0.9127851804719949	-0.9127851804397461	0.5108646682507103	0.02183445039431665	-0.6396138934092869	-0.444300477588395	2.201010113358582e-07	1.485024476281434e-07	-1.696132907051683e-06	1.451488557017284e-06	8.28268711888477e-08	4.059379650693083e-07	-1.068227267786987e-06
1.54	-0.09477552187831605	0.02846592626402451	0.8173931369684174	0.823860678880193	-0.2229785104963707	-0.1280582933713472	-0.6049210065357159	0.9296763276933151	0.9296763276933162	-0.04459349789867972	0.1745292643158157	0.2915864533898763	0.1373668154984247	0.5569608852337679	0.2683204680473212	0.5783661686177354	-2.331776461800322	0.02590198015551633	-0.2552070077100279	0.8738413091734385	-2.216218109932216	-2.216218109932016	0.4648736080156472	3.448772376514142e-05	-0.5567454135906452	-0.1779983152383441	-0.1481102271570345	-0.005971711953856833	0.01803926532606131	-0.2951414755025493	0.02621598462297819	0.001578722737617869	0.1967167722921128	-9.760528374624526	-31.58473080442381	-3.678136605256037	-0.3240735383377346	-5.087075372342913	-602.3405390735979	65.71890806921638	0.1121804137963262	0.6227603541077702	-0.9152932983235073	-0.4055801869504268	-0.2152647173314053	-0.5433262742391747	1.722027855660577	-0.7128433244386482	-0.7128433244386481	0.4258413107028581	-0.03309399131132431	-0.569593597454466	-0.3672047954637562	2.152048279218781e-07	1.400049599313786e-07	-1.729167181886073e-06	1.376717758123052e-06	8.984144974350831e-08	4.090216798225539e-07	-1.121404113921559e-06
1.55	-0.08920075601024657	0.03117983906075653	0.8231299657448768	0.8005249756184105	-0.2227312486518003	-0.1306376176552176	-0.5960985904955598	0.9074813439028501	0.9074813439028425	-0.03992200841492873	0.1745295055878839	0.2859911718517857	0.1355673632825839	0.5578945791527332	0.2744130970758819	0.5688836625368522	-2.335034446509704	0.02354360647039319	-0.2606610544364705	0.8904850445714916	-2.222454753311187	-2.222454753311067	0.4693835609236437	1.166775476861047e-05	-0.5622078196413828	-0.1818464430118905	-0.1399840547058772	-0.007228417363493853	0.01796653455634546	-0.291057049142751	0.02788003023055563	0.0005374658122093751	0.1892386637518885	-10.92701838375567	-30.78062763052561	-3.870658556364904	-0.4291961486910137	-5.041992399382965	-597.006100558542	65.12204791677605	0.06931913052557541	0.5951789541307805	-0.9820379443186328	-0.2364286081185576	-0.2470552135705567	-0.5466133308786854	1.612018238730233	-0.5305307419076599	-0.5305307419197695	0.4572586638737827	0.01303707238612517	-0.519044663075353	-0.3868429694917132	2.058315167731503e-07	1.404048410358023e-07	-1.599357325990619e-06	1.368172932196463e-06	7.6796480176673e-08	4.030265960053052e-07	-1.06313392107479e-06
1.56	-0.08361958215307476	0.03395321110315387	0.8287685077242579	0.7771665883104951	-0.2225077568479671	-0.1332715162981649	-0.5871144427300535	0.8852337024991261	0.885233702499136	-0.03520668212549141	0.1745295012746381	0.2803443701423494	0.1337307845487702	0.5582424830548715	0.2802123171803854	0.5587088092020559	-2.336313271026552	0.02114797200655164	-0.2661218795241855	0.906187654243663	-2.226749632581416	-2.226749632581376	0.4736409691526668	-1.462933103248337e-05	-0.5670494478597969	-0.1854236188331002	-0.1318578822547213	-0.008485122773126023	0.01789380378669391	-0.2869726227829473	0.02954407583813523	-0.0005037911131925651	0.1817605552116626	-12.0900222435129	-29.97451092277733	-4.058944175650554	-0.5394309175568424	-5.010223663636604	-591.6474989804104	64.5913870561243	-0.004977589569272059	0.5640785692965548	-1.053762749106095	-0.009748148443876458	-0.2227168730751515	-0.5446819464936765	1.533802710484111	-0.3244905026902809	-0.3244905026902669	0.3753323749082907	-0.0337894146721247	-0.4454380309895745	-0.3130144049964315	1.995105256438161e-07	1.304644858498811e-07	-1.609998666120222e-06	1.268069797460962e-06	8.364317522749132e-08	3.957856290956439e-07	-1.078996062650006e-06
